<?xml version="1.0" encoding="utf-8" standalone="no"?>
<!DOCTYPE svg PUBLIC "-//W3C//DTD SVG 1.1//EN"
  "http://www.w3.org/Graphics/SVG/1.1/DTD/svg11.dtd">
<svg xmlns:xlink="http://www.w3.org/1999/xlink" width="462.187113pt" height="304.705687pt" viewBox="0 0 462.187113 304.705687" xmlns="http://www.w3.org/2000/svg" version="1.1">
 <metadata>
  <rdf:RDF xmlns:dc="http://purl.org/dc/elements/1.1/" xmlns:cc="http://creativecommons.org/ns#" xmlns:rdf="http://www.w3.org/1999/02/22-rdf-syntax-ns#">
   <cc:Work>
    <dc:type rdf:resource="http://purl.org/dc/dcmitype/StillImage"/>
    <dc:date>2026-08-03T19:12:48.146229</dc:date>
    <dc:format>image/svg+xml</dc:format>
    <dc:creator>
     <cc:Agent>
      <dc:title>Matplotlib v3.7.5, https://matplotlib.org/</dc:title>
     </cc:Agent>
    </dc:creator>
   </cc:Work>
  </rdf:RDF>
 </metadata>
 <defs>
  <style type="text/css">*{stroke-linejoin: round; stroke-linecap: butt}</style>
 </defs>
 <g id="figure_1">
  <g id="patch_1">
   <path d="M 0 304.705687 
L 462.187113 304.705687 
L 462.187113 0 
L 0 0 
z
" style="fill: #ffffff"/>
  </g>
  <g id="axes_1">
   <g id="patch_2">
    <path d="M 63.756655 258.625687 
L 229.16189 258.625687 
L 229.16189 64.433047 
L 63.756655 64.433047 
z
" style="fill: #ffffff"/>
   </g>
   <g id="matplotlib.axis_1">
    <g id="xtick_1">
     <g id="line2d_1">
      <path d="M 63.756655 258.625687 
L 63.756655 64.433047 
" clip-path="url(#p17327de506)" style="fill: none; stroke: #b0b0b0; stroke-opacity: 0.25; stroke-width: 0.5; stroke-linecap: square"/>
     </g>
     <g id="line2d_2">
      <defs>
       <path id="mece06a22c2" d="M 0 0 
L 0 3.5 
" style="stroke: #000000; stroke-width: 0.8"/>
      </defs>
      <g>
       <use xlink:href="#mece06a22c2" x="63.756655" y="258.625687" style="stroke: #000000; stroke-width: 0.8"/>
      </g>
     </g>
     <g id="text_1">
      <text style="font: 11px 'Latin Modern Roman', 'CMU Serif', 'DejaVu Serif', serif; text-anchor: middle" x="63.756655" y="273.260375" transform="rotate(-0 63.756655 273.260375)">0</text>
     </g>
    </g>
    <g id="xtick_2">
     <g id="line2d_3">
      <path d="M 96.837702 258.625687 
L 96.837702 64.433047 
" clip-path="url(#p17327de506)" style="fill: none; stroke: #b0b0b0; stroke-opacity: 0.25; stroke-width: 0.5; stroke-linecap: square"/>
     </g>
     <g id="line2d_4">
      <g>
       <use xlink:href="#mece06a22c2" x="96.837702" y="258.625687" style="stroke: #000000; stroke-width: 0.8"/>
      </g>
     </g>
     <g id="text_2">
      <text style="font: 11px 'Latin Modern Roman', 'CMU Serif', 'DejaVu Serif', serif; text-anchor: middle" x="96.837702" y="273.260375" transform="rotate(-0 96.837702 273.260375)">3</text>
     </g>
    </g>
    <g id="xtick_3">
     <g id="line2d_5">
      <path d="M 129.918749 258.625687 
L 129.918749 64.433047 
" clip-path="url(#p17327de506)" style="fill: none; stroke: #b0b0b0; stroke-opacity: 0.25; stroke-width: 0.5; stroke-linecap: square"/>
     </g>
     <g id="line2d_6">
      <g>
       <use xlink:href="#mece06a22c2" x="129.918749" y="258.625687" style="stroke: #000000; stroke-width: 0.8"/>
      </g>
     </g>
     <g id="text_3">
      <text style="font: 11px 'Latin Modern Roman', 'CMU Serif', 'DejaVu Serif', serif; text-anchor: middle" x="129.918749" y="273.260375" transform="rotate(-0 129.918749 273.260375)">6</text>
     </g>
    </g>
    <g id="xtick_4">
     <g id="line2d_7">
      <path d="M 162.999796 258.625687 
L 162.999796 64.433047 
" clip-path="url(#p17327de506)" style="fill: none; stroke: #b0b0b0; stroke-opacity: 0.25; stroke-width: 0.5; stroke-linecap: square"/>
     </g>
     <g id="line2d_8">
      <g>
       <use xlink:href="#mece06a22c2" x="162.999796" y="258.625687" style="stroke: #000000; stroke-width: 0.8"/>
      </g>
     </g>
     <g id="text_4">
      <text style="font: 11px 'Latin Modern Roman', 'CMU Serif', 'DejaVu Serif', serif; text-anchor: middle" x="162.999796" y="273.260375" transform="rotate(-0 162.999796 273.260375)">9</text>
     </g>
    </g>
    <g id="xtick_5">
     <g id="line2d_9">
      <path d="M 196.080843 258.625687 
L 196.080843 64.433047 
" clip-path="url(#p17327de506)" style="fill: none; stroke: #b0b0b0; stroke-opacity: 0.25; stroke-width: 0.5; stroke-linecap: square"/>
     </g>
     <g id="line2d_10">
      <g>
       <use xlink:href="#mece06a22c2" x="196.080843" y="258.625687" style="stroke: #000000; stroke-width: 0.8"/>
      </g>
     </g>
     <g id="text_5">
      <text style="font: 11px 'Latin Modern Roman', 'CMU Serif', 'DejaVu Serif', serif; text-anchor: middle" x="196.080843" y="273.260375" transform="rotate(-0 196.080843 273.260375)">12</text>
     </g>
    </g>
    <g id="xtick_6">
     <g id="line2d_11">
      <path d="M 229.16189 258.625687 
L 229.16189 64.433047 
" clip-path="url(#p17327de506)" style="fill: none; stroke: #b0b0b0; stroke-opacity: 0.25; stroke-width: 0.5; stroke-linecap: square"/>
     </g>
     <g id="line2d_12">
      <g>
       <use xlink:href="#mece06a22c2" x="229.16189" y="258.625687" style="stroke: #000000; stroke-width: 0.8"/>
      </g>
     </g>
     <g id="text_6">
      <text style="font: 11px 'Latin Modern Roman', 'CMU Serif', 'DejaVu Serif', serif; text-anchor: middle" x="229.16189" y="273.260375" transform="rotate(-0 229.16189 273.260375)">15</text>
     </g>
    </g>
   </g>
   <g id="matplotlib.axis_2">
    <g id="ytick_1">
     <g id="line2d_13">
      <path d="M 63.756655 258.625687 
L 229.16189 258.625687 
" clip-path="url(#p17327de506)" style="fill: none; stroke: #b0b0b0; stroke-opacity: 0.25; stroke-width: 0.5; stroke-linecap: square"/>
     </g>
     <g id="line2d_14">
      <defs>
       <path id="m70bdd8aece" d="M 0 0 
L -3.5 0 
" style="stroke: #000000; stroke-width: 0.8"/>
      </defs>
      <g>
       <use xlink:href="#m70bdd8aece" x="63.756655" y="258.625687" style="stroke: #000000; stroke-width: 0.8"/>
      </g>
     </g>
     <g id="text_7">
      <text style="font: 11px 'Latin Modern Roman', 'CMU Serif', 'DejaVu Serif', serif; text-anchor: end" x="56.756655" y="262.443031" transform="rotate(-0 56.756655 262.443031)">0</text>
     </g>
    </g>
    <g id="ytick_2">
     <g id="line2d_15">
      <path d="M 63.756655 213.014531 
L 229.16189 213.014531 
" clip-path="url(#p17327de506)" style="fill: none; stroke: #b0b0b0; stroke-opacity: 0.25; stroke-width: 0.5; stroke-linecap: square"/>
     </g>
     <g id="line2d_16">
      <g>
       <use xlink:href="#m70bdd8aece" x="63.756655" y="213.014531" style="stroke: #000000; stroke-width: 0.8"/>
      </g>
     </g>
     <g id="text_8">
      <text style="font: 11px 'Latin Modern Roman', 'CMU Serif', 'DejaVu Serif', serif; text-anchor: end" x="56.756655" y="216.831874" transform="rotate(-0 56.756655 216.831874)">1</text>
     </g>
    </g>
    <g id="ytick_3">
     <g id="line2d_17">
      <path d="M 63.756655 167.403374 
L 229.16189 167.403374 
" clip-path="url(#p17327de506)" style="fill: none; stroke: #b0b0b0; stroke-opacity: 0.25; stroke-width: 0.5; stroke-linecap: square"/>
     </g>
     <g id="line2d_18">
      <g>
       <use xlink:href="#m70bdd8aece" x="63.756655" y="167.403374" style="stroke: #000000; stroke-width: 0.8"/>
      </g>
     </g>
     <g id="text_9">
      <text style="font: 11px 'Latin Modern Roman', 'CMU Serif', 'DejaVu Serif', serif; text-anchor: end" x="56.756655" y="171.220717" transform="rotate(-0 56.756655 171.220717)">2</text>
     </g>
    </g>
    <g id="ytick_4">
     <g id="line2d_19">
      <path d="M 63.756655 121.792217 
L 229.16189 121.792217 
" clip-path="url(#p17327de506)" style="fill: none; stroke: #b0b0b0; stroke-opacity: 0.25; stroke-width: 0.5; stroke-linecap: square"/>
     </g>
     <g id="line2d_20">
      <g>
       <use xlink:href="#m70bdd8aece" x="63.756655" y="121.792217" style="stroke: #000000; stroke-width: 0.8"/>
      </g>
     </g>
     <g id="text_10">
      <text style="font: 11px 'Latin Modern Roman', 'CMU Serif', 'DejaVu Serif', serif; text-anchor: end" x="56.756655" y="125.609561" transform="rotate(-0 56.756655 125.609561)">3</text>
     </g>
    </g>
    <g id="ytick_5">
     <g id="line2d_21">
      <path d="M 63.756655 76.18106 
L 229.16189 76.18106 
" clip-path="url(#p17327de506)" style="fill: none; stroke: #b0b0b0; stroke-opacity: 0.25; stroke-width: 0.5; stroke-linecap: square"/>
     </g>
     <g id="line2d_22">
      <g>
       <use xlink:href="#m70bdd8aece" x="63.756655" y="76.18106" style="stroke: #000000; stroke-width: 0.8"/>
      </g>
     </g>
     <g id="text_11">
      <text style="font: 11px 'Latin Modern Roman', 'CMU Serif', 'DejaVu Serif', serif; text-anchor: end" x="56.756655" y="79.998404" transform="rotate(-0 56.756655 79.998404)">4</text>
     </g>
    </g>
    <g id="text_12">
     <text style="font: 12px 'Latin Modern Roman', 'CMU Serif', 'DejaVu Serif', serif; text-anchor: middle" x="42.266342" y="161.529367" transform="rotate(-90 42.266342 161.529367)">Erreur de position [cm]</text>
    </g>
   </g>
   <g id="PolyCollection_1">
    <defs>
     <path id="m42b864bce7" d="M 63.756655 -54.872569 
L 63.756655 -48.088559 
L 74.78367 -48.854918 
L 85.810686 -49.869313 
L 96.837702 -50.484694 
L 107.864717 -51.447929 
L 118.891733 -52.045649 
L 129.918749 -52.607754 
L 140.945764 -53.264215 
L 151.97278 -53.743986 
L 162.999796 -53.931929 
L 174.026811 -54.948677 
L 185.053827 -55.158195 
L 196.080843 -55.919506 
L 207.107858 -56.631405 
L 218.134874 -58.45529 
L 229.16189 -60.059764 
L 229.16189 -231.121017 
L 229.16189 -231.121017 
L 218.134874 -219.465957 
L 207.107858 -206.927441 
L 196.080843 -195.113308 
L 185.053827 -181.744782 
L 174.026811 -168.882854 
L 162.999796 -156.485663 
L 151.97278 -142.627226 
L 140.945764 -128.289516 
L 129.918749 -115.591989 
L 118.891733 -103.699793 
L 107.864717 -92.11149 
L 96.837702 -80.311044 
L 85.810686 -69.566635 
L 74.78367 -61.063317 
L 63.756655 -54.872569 
z
" style="stroke: #0072b2; stroke-opacity: 0.12"/>
    </defs>
    <g clip-path="url(#p17327de506)">
     <use xlink:href="#m42b864bce7" x="0" y="304.705687" style="fill: #0072b2; fill-opacity: 0.12; stroke: #0072b2; stroke-opacity: 0.12"/>
    </g>
   </g>
   <g id="PolyCollection_2">
    <defs>
     <path id="m9ba61b4dcc" d="M 63.756655 -52.183905 
L 63.756655 -49.049591 
L 74.78367 -50.288071 
L 85.810686 -52.110781 
L 96.837702 -53.569422 
L 107.864717 -55.523354 
L 118.891733 -57.282446 
L 129.918749 -59.005342 
L 140.945764 -60.64224 
L 151.97278 -61.624471 
L 162.999796 -63.174579 
L 174.026811 -64.743153 
L 185.053827 -65.689688 
L 196.080843 -67.046246 
L 207.107858 -68.645947 
L 218.134874 -70.546585 
L 229.16189 -72.893828 
L 229.16189 -165.120167 
L 229.16189 -165.120167 
L 218.134874 -156.455352 
L 207.107858 -148.076201 
L 196.080843 -139.584718 
L 185.053827 -130.184065 
L 174.026811 -120.111588 
L 162.999796 -112.987944 
L 151.97278 -104.206357 
L 140.945764 -96.704171 
L 129.918749 -91.58681 
L 118.891733 -84.48138 
L 107.864717 -77.393194 
L 96.837702 -69.511178 
L 85.810686 -61.999843 
L 74.78367 -56.32428 
L 63.756655 -52.183905 
z
" style="stroke: #0072b2; stroke-opacity: 0.28"/>
    </defs>
    <g clip-path="url(#p17327de506)">
     <use xlink:href="#m9ba61b4dcc" x="0" y="304.705687" style="fill: #0072b2; fill-opacity: 0.28; stroke: #0072b2; stroke-opacity: 0.28"/>
    </g>
   </g>
   <g id="line2d_23">
    <path d="M 63.756655 254.321046 
L 74.78367 252.088425 
L 85.810686 248.823528 
L 96.837702 244.802822 
L 107.864717 240.381518 
L 118.891733 236.571402 
L 129.918749 232.428006 
L 140.945764 229.063003 
L 151.97278 226.253944 
L 162.999796 223.931929 
L 174.026811 220.637398 
L 185.053827 217.218538 
L 196.080843 212.766303 
L 207.107858 209.143393 
L 218.134874 205.213152 
L 229.16189 201.117852 
" clip-path="url(#p17327de506)" style="fill: none; stroke: #0072b2; stroke-width: 2; stroke-linecap: square"/>
   </g>
   <g id="line2d_24">
    <path d="M 63.756655 253.486138 
L 74.78367 250.656333 
L 85.810686 246.577276 
L 96.837702 241.704163 
L 107.864717 236.003675 
L 118.891733 230.506944 
L 129.918749 225.215422 
L 140.945764 220.349445 
L 151.97278 215.255699 
L 162.999796 210.079789 
L 174.026811 204.824822 
L 185.053827 199.080767 
L 196.080843 192.952872 
L 207.107858 187.60782 
L 218.134874 181.838677 
L 229.16189 175.712729 
" clip-path="url(#p17327de506)" style="fill: none; stroke-dasharray: 5.18,2.24; stroke-dashoffset: 0; stroke: #555555; stroke-width: 1.4"/>
   </g>
   <g id="patch_3">
    <path d="M 63.756655 258.625687 
L 63.756655 64.433047 
" style="fill: none; stroke: #000000; stroke-width: 0.8; stroke-linejoin: miter; stroke-linecap: square"/>
   </g>
   <g id="patch_4">
    <path d="M 63.756655 258.625687 
L 229.16189 258.625687 
" style="fill: none; stroke: #000000; stroke-width: 0.8; stroke-linejoin: miter; stroke-linecap: square"/>
   </g>
   <g id="text_13">
    <text style="font: 700 11px 'Latin Modern Roman', 'CMU Serif', 'DejaVu Serif', serif; text-anchor: start" x="10.826979" y="64.915342" transform="rotate(-0 10.826979 64.915342)">(a)</text>
   </g>
  </g>
  <g id="axes_2">
   <g id="patch_5">
    <path d="M 282.091565 258.625687 
L 447.4968 258.625687 
L 447.4968 64.433047 
L 282.091565 64.433047 
z
" style="fill: #ffffff"/>
   </g>
   <g id="matplotlib.axis_3">
    <g id="xtick_7">
     <g id="line2d_25">
      <path d="M 282.091565 258.625687 
L 282.091565 64.433047 
" clip-path="url(#p696d3d5769)" style="fill: none; stroke: #b0b0b0; stroke-opacity: 0.25; stroke-width: 0.5; stroke-linecap: square"/>
     </g>
     <g id="line2d_26">
      <g>
       <use xlink:href="#mece06a22c2" x="282.091565" y="258.625687" style="stroke: #000000; stroke-width: 0.8"/>
      </g>
     </g>
     <g id="text_14">
      <text style="font: 11px 'Latin Modern Roman', 'CMU Serif', 'DejaVu Serif', serif; text-anchor: middle" x="282.091565" y="273.260375" transform="rotate(-0 282.091565 273.260375)">0</text>
     </g>
    </g>
    <g id="xtick_8">
     <g id="line2d_27">
      <path d="M 315.172612 258.625687 
L 315.172612 64.433047 
" clip-path="url(#p696d3d5769)" style="fill: none; stroke: #b0b0b0; stroke-opacity: 0.25; stroke-width: 0.5; stroke-linecap: square"/>
     </g>
     <g id="line2d_28">
      <g>
       <use xlink:href="#mece06a22c2" x="315.172612" y="258.625687" style="stroke: #000000; stroke-width: 0.8"/>
      </g>
     </g>
     <g id="text_15">
      <text style="font: 11px 'Latin Modern Roman', 'CMU Serif', 'DejaVu Serif', serif; text-anchor: middle" x="315.172612" y="273.260375" transform="rotate(-0 315.172612 273.260375)">3</text>
     </g>
    </g>
    <g id="xtick_9">
     <g id="line2d_29">
      <path d="M 348.253659 258.625687 
L 348.253659 64.433047 
" clip-path="url(#p696d3d5769)" style="fill: none; stroke: #b0b0b0; stroke-opacity: 0.25; stroke-width: 0.5; stroke-linecap: square"/>
     </g>
     <g id="line2d_30">
      <g>
       <use xlink:href="#mece06a22c2" x="348.253659" y="258.625687" style="stroke: #000000; stroke-width: 0.8"/>
      </g>
     </g>
     <g id="text_16">
      <text style="font: 11px 'Latin Modern Roman', 'CMU Serif', 'DejaVu Serif', serif; text-anchor: middle" x="348.253659" y="273.260375" transform="rotate(-0 348.253659 273.260375)">6</text>
     </g>
    </g>
    <g id="xtick_10">
     <g id="line2d_31">
      <path d="M 381.334706 258.625687 
L 381.334706 64.433047 
" clip-path="url(#p696d3d5769)" style="fill: none; stroke: #b0b0b0; stroke-opacity: 0.25; stroke-width: 0.5; stroke-linecap: square"/>
     </g>
     <g id="line2d_32">
      <g>
       <use xlink:href="#mece06a22c2" x="381.334706" y="258.625687" style="stroke: #000000; stroke-width: 0.8"/>
      </g>
     </g>
     <g id="text_17">
      <text style="font: 11px 'Latin Modern Roman', 'CMU Serif', 'DejaVu Serif', serif; text-anchor: middle" x="381.334706" y="273.260375" transform="rotate(-0 381.334706 273.260375)">9</text>
     </g>
    </g>
    <g id="xtick_11">
     <g id="line2d_33">
      <path d="M 414.415753 258.625687 
L 414.415753 64.433047 
" clip-path="url(#p696d3d5769)" style="fill: none; stroke: #b0b0b0; stroke-opacity: 0.25; stroke-width: 0.5; stroke-linecap: square"/>
     </g>
     <g id="line2d_34">
      <g>
       <use xlink:href="#mece06a22c2" x="414.415753" y="258.625687" style="stroke: #000000; stroke-width: 0.8"/>
      </g>
     </g>
     <g id="text_18">
      <text style="font: 11px 'Latin Modern Roman', 'CMU Serif', 'DejaVu Serif', serif; text-anchor: middle" x="414.415753" y="273.260375" transform="rotate(-0 414.415753 273.260375)">12</text>
     </g>
    </g>
    <g id="xtick_12">
     <g id="line2d_35">
      <path d="M 447.4968 258.625687 
L 447.4968 64.433047 
" clip-path="url(#p696d3d5769)" style="fill: none; stroke: #b0b0b0; stroke-opacity: 0.25; stroke-width: 0.5; stroke-linecap: square"/>
     </g>
     <g id="line2d_36">
      <g>
       <use xlink:href="#mece06a22c2" x="447.4968" y="258.625687" style="stroke: #000000; stroke-width: 0.8"/>
      </g>
     </g>
     <g id="text_19">
      <text style="font: 11px 'Latin Modern Roman', 'CMU Serif', 'DejaVu Serif', serif; text-anchor: middle" x="447.4968" y="273.260375" transform="rotate(-0 447.4968 273.260375)">15</text>
     </g>
    </g>
   </g>
   <g id="matplotlib.axis_4">
    <g id="ytick_6">
     <g id="line2d_37">
      <path d="M 282.091565 258.625687 
L 447.4968 258.625687 
" clip-path="url(#p696d3d5769)" style="fill: none; stroke: #b0b0b0; stroke-opacity: 0.25; stroke-width: 0.5; stroke-linecap: square"/>
     </g>
     <g id="line2d_38">
      <g>
       <use xlink:href="#m70bdd8aece" x="282.091565" y="258.625687" style="stroke: #000000; stroke-width: 0.8"/>
      </g>
     </g>
     <g id="text_20">
      <text style="font: 11px 'Latin Modern Roman', 'CMU Serif', 'DejaVu Serif', serif; text-anchor: end" x="275.091565" y="262.443031" transform="rotate(-0 275.091565 262.443031)">0</text>
     </g>
    </g>
    <g id="ytick_7">
     <g id="line2d_39">
      <path d="M 282.091565 220.379889 
L 447.4968 220.379889 
" clip-path="url(#p696d3d5769)" style="fill: none; stroke: #b0b0b0; stroke-opacity: 0.25; stroke-width: 0.5; stroke-linecap: square"/>
     </g>
     <g id="line2d_40">
      <g>
       <use xlink:href="#m70bdd8aece" x="282.091565" y="220.379889" style="stroke: #000000; stroke-width: 0.8"/>
      </g>
     </g>
     <g id="text_21">
      <text style="font: 11px 'Latin Modern Roman', 'CMU Serif', 'DejaVu Serif', serif; text-anchor: end" x="275.091565" y="224.197232" transform="rotate(-0 275.091565 224.197232)">2</text>
     </g>
    </g>
    <g id="ytick_8">
     <g id="line2d_41">
      <path d="M 282.091565 182.13409 
L 447.4968 182.13409 
" clip-path="url(#p696d3d5769)" style="fill: none; stroke: #b0b0b0; stroke-opacity: 0.25; stroke-width: 0.5; stroke-linecap: square"/>
     </g>
     <g id="line2d_42">
      <g>
       <use xlink:href="#m70bdd8aece" x="282.091565" y="182.13409" style="stroke: #000000; stroke-width: 0.8"/>
      </g>
     </g>
     <g id="text_22">
      <text style="font: 11px 'Latin Modern Roman', 'CMU Serif', 'DejaVu Serif', serif; text-anchor: end" x="275.091565" y="185.951434" transform="rotate(-0 275.091565 185.951434)">4</text>
     </g>
    </g>
    <g id="ytick_9">
     <g id="line2d_43">
      <path d="M 282.091565 143.888291 
L 447.4968 143.888291 
" clip-path="url(#p696d3d5769)" style="fill: none; stroke: #b0b0b0; stroke-opacity: 0.25; stroke-width: 0.5; stroke-linecap: square"/>
     </g>
     <g id="line2d_44">
      <g>
       <use xlink:href="#m70bdd8aece" x="282.091565" y="143.888291" style="stroke: #000000; stroke-width: 0.8"/>
      </g>
     </g>
     <g id="text_23">
      <text style="font: 11px 'Latin Modern Roman', 'CMU Serif', 'DejaVu Serif', serif; text-anchor: end" x="275.091565" y="147.705635" transform="rotate(-0 275.091565 147.705635)">6</text>
     </g>
    </g>
    <g id="ytick_10">
     <g id="line2d_45">
      <path d="M 282.091565 105.642492 
L 447.4968 105.642492 
" clip-path="url(#p696d3d5769)" style="fill: none; stroke: #b0b0b0; stroke-opacity: 0.25; stroke-width: 0.5; stroke-linecap: square"/>
     </g>
     <g id="line2d_46">
      <g>
       <use xlink:href="#m70bdd8aece" x="282.091565" y="105.642492" style="stroke: #000000; stroke-width: 0.8"/>
      </g>
     </g>
     <g id="text_24">
      <text style="font: 11px 'Latin Modern Roman', 'CMU Serif', 'DejaVu Serif', serif; text-anchor: end" x="275.091565" y="109.459836" transform="rotate(-0 275.091565 109.459836)">8</text>
     </g>
    </g>
    <g id="ytick_11">
     <g id="line2d_47">
      <path d="M 282.091565 67.396693 
L 447.4968 67.396693 
" clip-path="url(#p696d3d5769)" style="fill: none; stroke: #b0b0b0; stroke-opacity: 0.25; stroke-width: 0.5; stroke-linecap: square"/>
     </g>
     <g id="line2d_48">
      <g>
       <use xlink:href="#m70bdd8aece" x="282.091565" y="67.396693" style="stroke: #000000; stroke-width: 0.8"/>
      </g>
     </g>
     <g id="text_25">
      <text style="font: 11px 'Latin Modern Roman', 'CMU Serif', 'DejaVu Serif', serif; text-anchor: end" x="275.091565" y="71.214037" transform="rotate(-0 275.091565 71.214037)">10</text>
     </g>
    </g>
    <g id="text_26">
     <!-- Erreur de rotation [$^\circ$] -->
     <g transform="translate(253.11094 239.529367) rotate(-90)">
      <text>
       <tspan style="font: 12px 'Latin Modern Roman'" x="0 10.799988 17.303986 23.807983 31.139969 40.139954 46.643951 52.307938 61.307922 68.639908 74.303894 80.807892 88.979889 95.483887 103.655884 110.159882 114.99588 123.167877 132.167862 137.831848 151.118669" y="-0.703125">Erreur de rotation []</tspan>
       <tspan style="font: 8.4px 'cmsy10'" x="144.678465" y="-5.2948125">±</tspan>
      </text>
     </g>
    </g>
   </g>
   <g id="PolyCollection_3">
    <defs>
     <path id="maa7f7dd4a7" d="M 282.091565 -70.168149 
L 282.091565 -51.639794 
L 293.118581 -52.455162 
L 304.145596 -53.336983 
L 315.172612 -54.279527 
L 326.199628 -55.361773 
L 337.226643 -56.518526 
L 348.253659 -57.423866 
L 359.280675 -58.114383 
L 370.30769 -58.530529 
L 381.334706 -59.789848 
L 392.361722 -60.190065 
L 403.388737 -61.135146 
L 414.415753 -62.145021 
L 425.442769 -63.602259 
L 436.469784 -65.136732 
L 447.4968 -66.137798 
L 447.4968 -231.290124 
L 447.4968 -231.290124 
L 436.469784 -222.401408 
L 425.442769 -214.386585 
L 414.415753 -204.627831 
L 403.388737 -191.876675 
L 392.361722 -181.38537 
L 381.334706 -170.140481 
L 370.30769 -158.236815 
L 359.280675 -144.902416 
L 348.253659 -132.258007 
L 337.226643 -119.420045 
L 326.199628 -108.203038 
L 315.172612 -96.009608 
L 304.145596 -85.133108 
L 293.118581 -76.772883 
L 282.091565 -70.168149 
z
" style="stroke: #0072b2; stroke-opacity: 0.12"/>
    </defs>
    <g clip-path="url(#p696d3d5769)">
     <use xlink:href="#maa7f7dd4a7" x="0" y="304.705687" style="fill: #0072b2; fill-opacity: 0.12; stroke: #0072b2; stroke-opacity: 0.12"/>
    </g>
   </g>
   <g id="PolyCollection_4">
    <defs>
     <path id="mce05e5401b" d="M 282.091565 -63.076133 
L 282.091565 -54.263807 
L 293.118581 -55.556316 
L 304.145596 -57.209271 
L 315.172612 -58.762853 
L 326.199628 -60.689866 
L 337.226643 -62.428041 
L 348.253659 -64.313121 
L 359.280675 -65.952502 
L 370.30769 -67.261511 
L 381.334706 -68.817521 
L 392.361722 -70.901457 
L 403.388737 -73.008848 
L 414.415753 -75.068023 
L 425.442769 -77.718019 
L 436.469784 -79.567417 
L 447.4968 -82.728583 
L 447.4968 -149.267366 
L 447.4968 -149.267366 
L 436.469784 -145.19075 
L 425.442769 -138.938672 
L 414.415753 -132.391888 
L 403.388737 -124.175879 
L 392.361722 -117.545503 
L 381.334706 -110.99669 
L 370.30769 -105.550764 
L 359.280675 -101.115135 
L 348.253659 -95.121928 
L 337.226643 -89.904031 
L 326.199628 -84.02195 
L 315.172612 -77.767743 
L 304.145596 -71.783827 
L 293.118581 -67.82002 
L 282.091565 -63.076133 
z
" style="stroke: #0072b2; stroke-opacity: 0.28"/>
    </defs>
    <g clip-path="url(#p696d3d5769)">
     <use xlink:href="#mce05e5401b" x="0" y="304.705687" style="fill: #0072b2; fill-opacity: 0.28; stroke: #0072b2; stroke-opacity: 0.28"/>
    </g>
   </g>
   <g id="line2d_49">
    <path d="M 282.091565 246.650917 
L 293.118581 244.018271 
L 304.145596 241.941872 
L 315.172612 238.490264 
L 326.199628 235.366988 
L 337.226643 231.582811 
L 348.253659 229.112883 
L 359.280675 225.584688 
L 370.30769 222.457712 
L 381.334706 218.94753 
L 392.361722 215.771887 
L 403.388737 211.757705 
L 414.415753 208.278082 
L 425.442769 203.806246 
L 436.469784 200.478132 
L 447.4968 197.621855 
" clip-path="url(#p696d3d5769)" style="fill: none; stroke: #0072b2; stroke-width: 2; stroke-linecap: square"/>
   </g>
   <g id="line2d_50">
    <path d="M 282.091565 244.665637 
L 293.118581 241.523677 
L 304.145596 237.93699 
L 315.172612 232.646328 
L 326.199628 227.428647 
L 337.226643 222.069831 
L 348.253659 216.903115 
L 359.280675 211.47613 
L 370.30769 206.329566 
L 381.334706 200.875644 
L 392.361722 195.77542 
L 403.388737 190.131168 
L 414.415753 184.544353 
L 425.442769 178.784889 
L 436.469784 173.948331 
L 447.4968 168.92592 
" clip-path="url(#p696d3d5769)" style="fill: none; stroke-dasharray: 5.18,2.24; stroke-dashoffset: 0; stroke: #555555; stroke-width: 1.4"/>
   </g>
   <g id="patch_6">
    <path d="M 282.091565 258.625687 
L 282.091565 64.433047 
" style="fill: none; stroke: #000000; stroke-width: 0.8; stroke-linejoin: miter; stroke-linecap: square"/>
   </g>
   <g id="patch_7">
    <path d="M 282.091565 258.625687 
L 447.4968 258.625687 
" style="fill: none; stroke: #000000; stroke-width: 0.8; stroke-linejoin: miter; stroke-linecap: square"/>
   </g>
   <g id="text_27">
    <text style="font: 700 11px 'Latin Modern Roman', 'CMU Serif', 'DejaVu Serif', serif; text-anchor: start" x="229.16189" y="64.915342" transform="rotate(-0 229.16189 64.915342)">(b)</text>
   </g>
  </g>
  <g id="text_28">
   <!-- Point de l'horizon de prédiction $k$ -->
   <g transform="translate(111.9768 295.105687)">
    <text>
     <tspan style="font: 12px 'Latin Modern Roman'" x="0 10.799988 18.971985 23.807983 32.807968 39.311966 44.975952 53.975937 61.307922 66.971909 71.807907 76.643906 85.64389 93.815887 100.319885 105.155884 112.487869 120.659866 129.659851 135.323837 144.323822 151.655807 157.319794 166.319778 172.823776 180.155762 189.155746 193.991745 201.32373 207.827728 212.663727 220.835724 229.835709" y="-0.234375">Point de l'horizon de prédiction </tspan>
     <tspan style="font: 12px 'cmmi10'" x="235.499695" y="-0.234375">k</tspan>
    </text>
   </g>
  </g>
  <g id="legend_1">
   <g id="patch_8">
    <path d="M 11.6 19.3 
L 28.1 19.3 
L 28.1 11.6 
L 11.6 11.6 
z
" style="fill: #0072b2; fill-opacity: 0.12; stroke: #0072b2; stroke-opacity: 0.12; stroke-linejoin: miter"/>
   </g>
   <g id="text_29">
    <text style="font: 11px 'Latin Modern Roman', 'CMU Serif', 'DejaVu Serif', serif; text-anchor: start" x="33.6" y="19.3" transform="rotate(-0 33.6 19.3)">Percentiles 10–90</text>
   </g>
   <g id="patch_9">
    <path d="M 11.6 36.955 
L 28.1 36.955 
L 28.1 29.255 
L 11.6 29.255 
z
" style="fill: #0072b2; fill-opacity: 0.28; stroke: #0072b2; stroke-opacity: 0.28; stroke-linejoin: miter"/>
   </g>
   <g id="text_30">
    <text style="font: 11px 'Latin Modern Roman', 'CMU Serif', 'DejaVu Serif', serif; text-anchor: start" x="33.6" y="36.955" transform="rotate(-0 33.6 36.955)">Écart interquartile</text>
   </g>
   <g id="line2d_51">
    <path d="M 170.470937 15.45 
L 178.720937 15.45 
L 186.970937 15.45 
" style="fill: none; stroke: #0072b2; stroke-width: 2; stroke-linecap: square"/>
   </g>
   <g id="text_31">
    <text style="font: 11px 'Latin Modern Roman', 'CMU Serif', 'DejaVu Serif', serif; text-anchor: start" x="192.470937" y="19.3" transform="rotate(-0 192.470937 19.3)">Médiane</text>
   </g>
   <g id="line2d_52">
    <path d="M 260.614219 15.45 
L 268.864219 15.45 
L 277.114219 15.45 
" style="fill: none; stroke-dasharray: 5.18,2.24; stroke-dashoffset: 0; stroke: #555555; stroke-width: 1.4"/>
   </g>
   <g id="text_32">
    <text style="font: 11px 'Latin Modern Roman', 'CMU Serif', 'DejaVu Serif', serif; text-anchor: start" x="282.614219" y="19.3" transform="rotate(-0 282.614219 19.3)">Moyenne</text>
   </g>
  </g>
 </g>
 <defs>
  <clipPath id="p17327de506">
   <rect x="63.756655" y="64.433047" width="165.405235" height="194.19264"/>
  </clipPath>
  <clipPath id="p696d3d5769">
   <rect x="282.091565" y="64.433047" width="165.405235" height="194.19264"/>
  </clipPath>
 </defs>
</svg>
